<svg width="18" height="18" viewBox="0 0 18 18" fill="none" xmlns="http://www.w3.org/2000/svg">
<g id="Frame" clip-path="url(#clip0_87_16)">
<path id="Vector" d="M17.0065 0H0.993541C0.733179 0.0236727 0.491602 0.145601 0.317913 0.341C0.144225 0.5364 0.0514606 0.790606 0.0584763 1.05195V16.9481C0.0514606 17.2094 0.144225 17.4636 0.317913 17.659C0.491602 17.8544 0.733179 17.9763 0.993541 18H9.52601V10.987H7.18835V8.2987H9.52601V6.31169C9.44963 5.44702 9.71141 4.5864 10.2563 3.91071C10.8012 3.23501 11.5869 2.79685 12.4481 2.68831H13.0325C13.7358 2.66895 14.4395 2.70805 15.1364 2.8052V5.25974H13.6169C12.4481 5.25974 12.3312 5.84416 12.3312 6.54545V8.2987H15.0195L14.6689 10.987H12.3312V17.8831H16.8896C17.151 17.8901 17.4052 17.7974 17.6006 17.6237C17.796 17.45 17.9179 17.2084 17.9416 16.9481V0.935065C17.9252 0.692474 17.8214 0.464053 17.6495 0.292123C17.4775 0.120193 17.2491 0.0164093 17.0065 0Z" fill="white"/>
</g>
<defs>
<clipPath id="clip0_87_16">
<rect width="17.8831" height="18" fill="white" transform="translate(0.0584717)"/>
</clipPath>
</defs>
</svg>
