<svg width="183" height="58" viewBox="0 0 183 58" fill="none" xmlns="http://www.w3.org/2000/svg">
<g id="Rectangle 4" filter="url(#filter0_d_18_7)">
<path d="M4 10C4 4.47715 8.47715 0 14 0H169C174.523 0 179 4.47715 179 10V40C179 45.5228 174.523 50 169 50H14C8.47715 50 4 45.5228 4 40V10Z" fill="#48A0B6"/>
<path d="M14 0.5H169C174.247 0.5 178.5 4.75329 178.5 10V40C178.5 45.2467 174.247 49.5 169 49.5H14C8.75329 49.5 4.5 45.2467 4.5 40V10C4.5 4.75329 8.75329 0.5 14 0.5Z" stroke="black"/>
</g>
<defs>
<filter id="filter0_d_18_7" x="0" y="0" width="183" height="58" filterUnits="userSpaceOnUse" color-interpolation-filters="sRGB">
<feFlood flood-opacity="0" result="BackgroundImageFix"/>
<feColorMatrix in="SourceAlpha" type="matrix" values="0 0 0 0 0 0 0 0 0 0 0 0 0 0 0 0 0 0 127 0" result="hardAlpha"/>
<feOffset dy="4"/>
<feGaussianBlur stdDeviation="2"/>
<feComposite in2="hardAlpha" operator="out"/>
<feColorMatrix type="matrix" values="0 0 0 0 0 0 0 0 0 0 0 0 0 0 0 0 0 0 0.25 0"/>
<feBlend mode="normal" in2="BackgroundImageFix" result="effect1_dropShadow_18_7"/>
<feBlend mode="normal" in="SourceGraphic" in2="effect1_dropShadow_18_7" result="shape"/>
</filter>
</defs>
</svg>
