<svg width="18" height="18" viewBox="0 0 18 18" fill="none" xmlns="http://www.w3.org/2000/svg">
<g id="Frame" clip-path="url(#clip0_87_16)">
<path id="Vector" d="M17.0066 0H0.993602C0.73324 0.0236727 0.491663 0.145601 0.317974 0.341C0.144286 0.5364 0.0515216 0.790606 0.0585373 1.05195V16.9481C0.0515216 17.2094 0.144286 17.4636 0.317974 17.659C0.491663 17.8544 0.73324 17.9763 0.993602 18H9.52607V10.987H7.18841V8.2987H9.52607V6.31169C9.44969 5.44702 9.71147 4.5864 10.2564 3.91071C10.8013 3.23501 11.5869 2.79685 12.4481 2.68831H13.0326C13.7359 2.66895 14.4396 2.70805 15.1365 2.8052V5.25974H13.617C12.4481 5.25974 12.3313 5.84416 12.3313 6.54545V8.2987H15.0196L14.6689 10.987H12.3313V17.8831H16.8897C17.151 17.8901 17.4053 17.7974 17.6007 17.6237C17.7961 17.45 17.918 17.2084 17.9417 16.9481V0.935065C17.9252 0.692474 17.8215 0.464053 17.6495 0.292123C17.4776 0.120193 17.2492 0.0164093 17.0066 0Z" fill="white"/>
</g>
<defs>
<clipPath id="clip0_87_16">
<rect width="17.8831" height="18" fill="white" transform="translate(0.0584717)"/>
</clipPath>
</defs>
</svg>
